<svg width="86" height="86" viewBox="0 0 86 86" fill="none" xmlns="http://www.w3.org/2000/svg">
<path d="M21.8618 21.2114V55.3577C42.935 55.3577 47.3361 61.645 46.9025 64.7886C52.123 48.953 48.7107 45.9114 43.8674 47.2553M43.8674 47.2553C41.4697 47.9206 38.7214 49.6606 36.496 51.4553L43.8674 47.2553ZM43.8674 47.2553L64.4634 35.5203L34.2195 42.3496L60.561 25.1138M83 43C83 65.0914 65.0914 83 43 83C20.9086 83 3 65.0914 3 43C3 20.9086 20.9086 3 43 3C65.0914 3 83 20.9086 83 43Z" stroke="#E85A4F" stroke-width="5" stroke-linecap="round" stroke-linejoin="round"/>
</svg>
